<?xml version="1.0" encoding="utf-8"?>
<!-- Generator: Adobe Illustrator 16.0.0, SVG Export Plug-In . SVG Version: 6.00 Build 0)  -->
<!DOCTYPE svg PUBLIC "-//W3C//DTD SVG 1.1//EN" "http://www.w3.org/Graphics/SVG/1.1/DTD/svg11.dtd">
<svg version="1.1" id="Layer_1" xmlns="http://www.w3.org/2000/svg" xmlns:xlink="http://www.w3.org/1999/xlink" x="0px" y="0px"
	 width="70px" height="70px" viewBox="0 0 70 70" enable-background="new 0 0 70 70" xml:space="preserve">
<g>
	<polygon fill="#63B9D3" points="51.532,46.41 37.876,47.5 47.074,10.914 66.672,5.167 	"/>
	<polygon fill="#F2E4C2" points="47.412,64.833 35.509,64.833 37.312,50.351 50.979,49.621 	"/>
	<path fill-rule="evenodd" clip-rule="evenodd" fill="#222222" d="M45.584,51.753c-1.027-0.336-1.883-0.557-2.689-0.895
		c-0.736-0.307-1.424-0.738-2.383-1.248c4.27-1.041,6.055-4.482,8.313-7.283c2.273-2.818,3.016-3.402,5.447-2.467
		c0.533,0.205,1.283,0.811,1.273,1.219c-0.008,0.502-0.617,1.273-1.125,1.439c-3.805,1.252-6.615,4.104-10.164,5.951
		c2.408,1.32,2.693,1.197,5.424-2.01c-0.354,0.838-0.705,1.678-1.051,2.5c2.914,0.787,5.857,1.439,8.689,2.416
		c1.238,0.43,2.539,1.322,3.268,2.381c0.641,0.93,0.541,2.381,0.727,3.607c0.088,0.584,0.078,1.182,0.115,1.844
		c-0.979,1.025-1.773,0.736-3.01-0.127c-3.619-2.525-7.436-4.771-11.438-7.295c-0.9,2.486-1.438,4.605-2.408,6.5
		c-1.389,2.709-4.355,3.5-6.787,4.91c-0.35,0.203-0.76,0.342-1.158,0.418c-0.709,0.137-1.793,0.533-2.077,0.227
		c-0.631-0.684-1.027-1.699-1.23-2.643c-0.568-2.641,1.011-4.898,1.591-7.326c0.604-2.531,1.831-4.912,2.784-7.361
		c0.32-0.826,0.641-1.654,0.668-2.816c-1.553,1.146-3.115,2.281-4.656,3.443c-0.779,0.588-1.537,1.205-2.273,1.846
		c-1.789,1.557-2.447,1.355-2.996-0.938c-0.094-0.385-0.266-0.754-0.396-1.115c2.131-1.586,4.121-3.209,6.255-4.615
		c1.573-1.035,0.658-2.283,0.416-3.354c-0.117-0.52-1.099-0.957-1.773-1.207c-0.684-0.254-1.471-0.229-2.199-0.324
		C24.488,47.449,17.189,55.974,3.328,56.246c2.547-2.055,4.578-3.902,6.814-5.457c4.973-3.453,8.932-7.902,12.535-12.662
		c3.053-4.033,5.865-8.252,8.654-12.476c0.717-1.088,0.908-2.514,1.391-3.766c0.367-0.956,0.813-1.881,1.224-2.82
		c0.174,0.045,0.35,0.092,0.523,0.137c0.316,1.617,0.633,3.234,0.94,4.788c5.082-2.88,8.869-6.542,11.307-11.46
		c-0.127-0.16-0.256-0.32-0.385-0.48c-1.686,1.266-3.605,2.316-5.012,3.84c-3.242,3.516-3.822,3.707-7.678,1.017
		c-0.555-0.388-1.068-0.841-1.6-1.488c4.352,0.303,7.643-2.231,11.285-3.787c1-0.427,2.146-0.515,3.23-0.739
		c0.242-0.051,0.52-0.079,0.75-0.013c1.646,0.472,3.881,5.523,3.09,7.28c-2.031-1.362-3.234-0.088-4.107,1.119
		c0.613,1.459,1.848,3.012,1.48,3.903c-0.381,0.921-2.318,1.198-3.303,1.636c0.188,0.234,0.6,0.783,1.053,1.297
		c0.982,1.111,1.748,1.964,3.436,0.53c0.666-0.567,2.734,0.14,3.947,0.723c0.813,0.391,0.033,2.116-1.07,2.262
		c-2.621,0.35-4.605,1.471-6.045,3.846c-0.787,1.299-2.295,2.162-3.918,3.617c1.449-0.459,2.461-0.615,3.301-1.082
		c1.76-0.977,3.311-0.316,4.807,0.475c0.471,0.248,1.041,1.232,0.887,1.543c-0.287,0.578-1.143,1.352-1.641,1.273
		c-3.693-0.584-5.836,1.6-7.658,4.195c-2.768,3.939-4.719,8.266-5.449,13.076c-0.053,0.348-0.033,0.707-0.02,1.061
		c0.018,0.412,0.066,0.826,0.117,1.434C40.803,58.482,42.811,54.861,45.584,51.753z M36.777,33.062
		c4.855-1.234,5.344-1.928,5.758-8.183c-2.32,1.383-5.619,0.141-7.232,2.93c-1.329,2.294-2.402,4.732-3.588,7.107
		c0.299,0.189,0.598,0.379,0.898,0.566c1.148-1.381,2.296-2.762,3.367-4.047C36.203,31.89,36.498,32.49,36.777,33.062z
		 M38.072,39.371c2.498-0.43,2.639-2.467,2.967-4.348C38.328,35.171,37.414,36.673,38.072,39.371z"/>
</g>
</svg>
