<?xml version="1.0" encoding="utf-8"?>
<!-- Generator: Adobe Illustrator 16.0.0, SVG Export Plug-In . SVG Version: 6.00 Build 0)  -->
<!DOCTYPE svg PUBLIC "-//W3C//DTD SVG 1.1//EN" "http://www.w3.org/Graphics/SVG/1.1/DTD/svg11.dtd">
<svg version="1.1" id="Layer_1" xmlns="http://www.w3.org/2000/svg" xmlns:xlink="http://www.w3.org/1999/xlink" x="0px" y="0px"
	 width="398.145px" height="180.722px" viewBox="0 0 398.145 180.722" enable-background="new 0 0 398.145 180.722"
	 xml:space="preserve">
<polygon fill="#63B9D3" points="354.666,118.449 315.445,121.584 341.861,16.503 398.145,0 "/>
<polygon fill="#F2E4C2" points="342.833,171.362 308.645,171.362 313.822,129.771 353.078,127.674 "/>
<g>
	<path fill-rule="evenodd" clip-rule="evenodd" fill="#333333" d="M71.032,146.746c4.143,4.66,8.755,9.854,13.367,15.05
		c0.694-0.258,1.386-0.516,2.08-0.769c-4.25-33.111-0.58-65.717,5.557-98.162c-0.573-0.288-1.148-0.57-1.719-0.858
		c-4.23,4.47-8.459,8.941-13.111,13.855c-0.905-0.057-2.599-0.159-4.545-0.283c0.567,2.125,1.083,4.037,1.5,5.584
		c2.419,0.322,4.991,0.094,6.893,1.076c1.775,0.912,2.839,3.111,4.221,4.745c-2.071,1.583-4.069,4.424-6.219,4.513
		c-7.347,0.305-9.276,1.69-9.422,9.633c3.962-1.68,7.628-3.232,11.313-4.79c4.092,7.781,0.464,10.667-8.068,13.32
		c-6.96,2.167-10.091-0.596-10.595-7.677c-0.545-7.651-2.621-15.25-0.573-22.949c0.955-3.587,1.764-7.215,2.741-11.294
		c1.98,1.532,3.704,2.875,5.546,4.305c3.513-3.38,6.891-6.925,10.587-10.129c5.066-4.378,11.651-3.536,17.501,1.974
		c0.783,0.734,1.423,1.602,2.224,2.311c6.038,5.336,6.581,7.372,2.981,14.192c-4.602,8.728-8.305,17.574-7.92,27.745
		c0.106,2.931-2.316,5.882-2.455,8.877c-0.206,4.493,0.283,9.079,1,13.553c1.986,12.318,4.24,24.597,6.385,36.891
		c0.33,1.894,0.687,3.788,0.92,5.692c0.583,4.81-5.333,9.09-9.923,7.046c-7.159-3.178-12.185-8.191-14.5-15.7
		c-1.713-5.533-3.987-10.909-5.894-16.394C70.645,147.37,71.073,146.413,71.032,146.746z"/>
	<path fill-rule="evenodd" clip-rule="evenodd" fill="#333333" d="M13.924,156.267c-0.98,0.387-2.105,0.833-3.229,1.28
		c0.317,1.497,0.62,2.955,1.111,5.305c-2.94-2.117-4.86-3.496-6.779-4.879c-4.961-3.585-6.327-11.629-3.754-17
		c1.837-3.827,2.425-8.227,3.61-12.357c3.9-13.572,7.813-27.141,11.698-40.712c0.541-1.87,1.096-3.759,1.349-5.678
		c1.12-8.49,9.655-7.786,14.867-11.133c2.108-1.356,4.85-1.795,7.657-2.775c2.544,2.383,4.892,5.314,7.915,7.233
		c4.116,2.624,3.385,5.651,1.679,8.76c-4.572,8.317-9.36,16.52-14.126,24.736c-0.644,1.116-1.497,2.227-2.521,3.025
		c-2.492,1.938-5.125,4.681-8.594,2.296c-3.623-2.489-4.825-6.298-3.524-10.424c1.111-3.501,2.686-6.863,4.124-10.474
		c-1.656-1.432-2.742-2.166-3.82,1.047c-2.318,6.908-5.105,13.657-5.983,20.966c-1.244,10.32-2.829,20.605-3.739,30.949
		C11.598,149.503,13.133,152.731,13.924,156.267z M26.214,80.138c-0.93,2.889-1.684,5.244-2.509,7.82
		c3.067,1.121,6.16,2.247,9.546,3.481c0.907-3.12,1.703-5.867,2.492-8.611C32.136,81.809,29.22,80.986,26.214,80.138z
		 M32.892,97.418c-0.407-0.585-0.816-1.16-1.23-1.745c-2.063,0.932-4.707,1.398-6.021,2.931c-1.116,1.305-0.704,3.843-0.967,5.832
		c0.634,0.179,1.271,0.352,1.912,0.525C28.692,102.446,30.792,99.933,32.892,97.418z"/>
	<path fill-rule="evenodd" clip-rule="evenodd" fill="#333333" d="M34.657,126.22c1.607-1.368,3.214-2.736,4.654-3.972
		c-2.537-1.513-5.078-3.025-7.626-4.543c8.494,0.467,14.825-3.783,21.571-6.446c4.188-1.651,7.868-1.344,12.968,1.642
		c-3.811,1.537-6.464,2.608-9.117,3.68c-0.07,0.327-0.137,0.654-0.204,0.981c1.538,0.272,3.167,0.992,4.592,0.724
		c2.797-0.52,15.44,5.104,17.257,8.922c-2.96,0.392-5.584,0.923-8.24,1.042c-2.735,0.118-5.489-0.159-8.636-0.273
		c-1.792,13.583-3.409,26.788-5.363,39.945c-0.526,3.54-2.11,6.928-3.204,10.384c-0.542-0.016-1.091-0.035-1.629-0.045
		c-0.637-2.886-2.008-5.836-1.771-8.645c0.98-11.672,2.457-23.301,3.731-34.945c0.122-1.141,0.119-2.296,0.199-3.937
		c-3.97,2.245-7.703,4.126-11.123,6.44c-0.994,0.675-1.138,2.594-1.547,3.979c-1.777,5.976-3.469,11.976-5.284,17.936
		c-0.233,0.76-1.031,1.349-2.114,2.698c-3.241-7.959,1.13-14.197,2.526-20.748c-3.223,0.847-6.412,2.032-9.707,2.391
		c-1.324,0.148-3.978-1.389-4.108-2.371c-0.281-2.247,0.029-4.974,1.207-6.843c1.099-1.761,3.618-2.684,5.522-3.973
		c-0.734,1.284-1.458,2.568-2.633,4.641c3.234-1.001,5.592-1.839,8.004-2.454c5.095-1.294,7.096-4.547,6.657-9.457
		c0.776,1.964,1.54,3.913,2.373,6.04c2.983-1.141,6.033-2.544,9.236-3.481c3.742-1.095,2.107-3.912,2.438-6.118
		c-1.835-0.219-3.893-1.042-5.465-0.526c-2.998,0.982-5.728,2.723-8.567,4.15C39.056,124.098,36.856,125.158,34.657,126.22z"/>
</g>
<path fill-rule="evenodd" clip-rule="evenodd" fill="#222222" d="M219.293,142.923c-2.607-0.854-4.78-1.414-6.828-2.271
	c-1.869-0.779-3.615-1.875-6.05-3.169c10.841-2.644,15.373-11.382,21.105-18.492c5.771-7.156,7.656-8.639,13.83-6.264
	c1.354,0.521,3.259,2.058,3.233,3.095c-0.02,1.274-1.566,3.233-2.856,3.654c-9.659,3.18-16.796,10.42-25.807,15.11
	c6.115,3.352,6.839,3.04,13.771-5.104c-0.897,2.128-1.79,4.261-2.668,6.348c7.399,1.999,14.872,3.655,22.063,6.135
	c3.145,1.092,6.447,3.357,8.297,6.045c1.627,2.36,1.373,6.045,1.845,9.159c0.223,1.483,0.198,3,0.292,4.682
	c-2.483,2.604-4.503,1.869-7.642-0.322c-9.188-6.412-18.879-12.115-29.04-18.522c-2.285,6.313-3.649,11.693-6.114,16.505
	c-3.525,6.878-11.059,8.886-17.232,12.466c-0.888,0.516-1.929,0.868-2.941,1.062c-1.8,0.347-4.552,1.354-5.271,0.575
	c-1.602-1.735-2.606-4.313-3.123-6.71c-1.443-6.705,2.568-12.437,4.041-18.602c1.532-6.427,4.646-12.472,7.066-18.689
	c0.813-2.098,1.627-4.2,1.696-7.151c-3.942,2.911-7.91,5.793-11.821,8.743c-1.979,1.492-3.903,3.059-5.772,4.686
	c-4.543,3.953-6.214,3.442-7.607-2.38c-0.238-0.977-0.674-1.914-1.007-2.831c5.411-4.027,10.464-8.147,15.883-11.719
	c3.992-2.628,1.671-5.797,1.056-8.515c-0.297-1.318-2.791-2.43-4.501-3.064c-1.736-0.645-3.734-0.58-5.584-0.823
	c-15.874,25.436-34.405,47.08-69.6,47.77c6.467-5.216,11.624-9.907,17.302-13.854c12.625-8.769,22.677-20.064,31.827-32.149
	c7.75-10.24,14.891-20.95,21.972-31.677c1.821-2.762,2.307-6.382,3.531-9.561c0.933-2.428,2.063-4.775,3.108-7.161
	c0.442,0.114,0.888,0.233,1.329,0.347c0.804,4.106,1.606,8.212,2.385,12.157c12.903-7.312,22.52-16.61,28.708-29.097
	c-0.322-0.406-0.65-0.813-0.978-1.219c-4.279,3.213-9.153,5.881-12.725,9.749c-8.231,8.926-9.704,9.412-19.492,2.581
	c-1.408-0.984-2.713-2.134-4.062-3.779c11.048,0.769,19.404-5.666,28.652-9.616c2.54-1.083,5.45-1.307,8.202-1.877
	c0.615-0.129,1.319-0.2,1.905-0.032c4.18,1.198,9.853,14.024,7.845,18.485c-5.157-3.459-8.212-0.224-10.429,2.841
	c1.558,3.704,4.691,7.647,3.759,9.91c-0.967,2.338-5.887,3.043-8.386,4.154c0.477,0.595,1.522,1.988,2.673,3.292
	c2.494,2.821,4.438,4.986,8.723,1.346c1.691-1.441,6.942,0.354,10.022,1.834c2.063,0.993,0.084,5.374-2.718,5.746
	c-6.655,0.887-11.693,3.731-15.348,9.763c-1.999,3.298-5.827,5.49-9.948,9.184c3.68-1.165,6.249-1.562,8.381-2.746
	c4.468-2.48,8.405-0.804,12.204,1.204c1.195,0.63,2.644,3.13,2.251,3.918c-0.729,1.468-2.9,3.432-4.165,3.233
	c-9.377-1.482-14.817,4.061-19.444,10.652c-7.027,10.002-11.981,20.986-13.835,33.2c-0.134,0.882-0.084,1.796-0.049,2.692
	c0.044,1.046,0.168,2.098,0.297,3.64C207.154,160.006,212.252,150.812,219.293,142.923z M196.934,95.465
	c12.327-3.134,13.567-4.893,14.619-20.778c-5.892,3.512-14.268,0.357-18.363,7.439c-3.372,5.824-6.099,12.014-9.108,18.045
	c0.759,0.48,1.518,0.961,2.281,1.438c2.916-3.506,5.831-7.012,8.548-10.273C195.476,92.489,196.225,94.012,196.934,95.465z
	 M200.222,111.482c6.342-1.092,6.699-6.264,7.532-11.039C200.871,100.82,198.55,104.634,200.222,111.482z"/>
<path fill-rule="evenodd" clip-rule="evenodd" fill="#454545" d="M301.747,148.596c-1.681,0.108-2.866,0.134-4.042,0.287
	c-0.54,0.074-1.109,0.308-1.556,0.62c-2.405,1.71-4.058,0.714-5.723-1.91c4.007-2.346,8.063-4.631,12.025-7.071
	c7.305-4.492,15.615-7.681,20.51-15.387c4.066-6.412,3.799-13.375,2.257-20.377c-0.536-2.445-4.855-4.186-7.532-3.704
	c-3.626,0.654-7.281,1.438-10.939,1.566c-6.398,0.233-6.874-2.102-7.479-7.16c-0.823-6.768,2.103-12.838,4.662-18.813
	c2.394-5.574,5.429-10.868,8.092-16.33c0.575-1.186,0.764-2.562,1.255-4.31c-8.202,1.884-12.979,7.285-17.788,12.646
	c-1.453,1.616-2.791,3.454-4.552,4.631c-2.231,1.498-3.051,3.04-3.175,5.845c-0.079,1.892-2.072,4.014-3.719,5.445
	c-2.45,2.12-1.606,5.021-2.514,7.466c-0.388,1.04-0.631,2.514-1.398,2.909c-0.67,0.353-2.009-0.456-3.001-0.867
	c-4.542-1.88-5.385-6.532-7.017-10.293c-0.699-1.604,0.893-4.399,1.854-6.457c0.933-2.012,2.385-3.779,3.839-5.991
	c0.679,1.924,1.244,3.536,1.969,5.589c4.22-3.868,8.063-7.629,12.169-11.081c4.825-4.064,9.66-8.175,14.897-11.666
	c3.748-2.501,10.542-1.073,13.701,2.142c2.212,2.251,2.315,5.177,0.938,7.667c-4.741,8.574-9.81,16.962-14.654,25.479
	c-1.21,2.117-2.043,4.446-3.169,6.956c4.761-0.942,8.932-2.038,13.177-2.554c8.855-1.076,17.679,5.053,19.325,12.967
	c2.588,12.438-0.963,23.233-8.49,32.744c-4.383,5.535-10.914,8.456-17.729,10.28c-1.478,0.392-3.169,0.243-4.706,0
	C302.536,149.751,301.97,148.794,301.747,148.596z"/>
</svg>
